:version 1.10
:name ASF
:units
  mass 1
  length 1
  angle deg
:documentation
  ASF file generated by Kaydara
:root
  axis xyz
  order  tx ty tz rx ry rz
  position 0 0 0
  orientation 0 0 0
:bonedata
  begin
    id 1
    name RightUpLegDummy
    direction -0.718183 -0.695806 0.00816078
    length 4.904
    axis 0 0 0 xyz
  end
  begin
    id 2
    name RightUpLeg
    direction -0.0736652 -0.994202 0.0783343
    length 17.4976
    axis -2.72909 -3.00389 -4.00133 xyz
    dof rx ry rz
  end
  begin
    id 3
    name RightLeg
    direction -0.0389037 -0.994596 -0.0962598
    length 16.5821
    axis 3.95836 -18.5909 -4.46993 xyz
    dof rx ry rz
  end
  begin
    id 4
    name RightFoot
    direction -0.311643 -0.412678 0.855906
    length 3.77069
    axis -1.99483 -18.8351 -3.27644 xyz
    dof rx ry rz
  end
  begin
    id 5
    name RightToes
    direction -0.317852 0.0389852 0.947339
    length 3.85082
    axis -2.00228 -18.1713 -3.25211 xyz
    dof rx ry rz
  end
  begin
    id 6
    name SpineDummy
    direction 8.3039e-015 1 4.44677e-016
    length 4.6813
    axis 0 0 0 xyz
  end
  begin
    id 7
    name Spine
    direction -0.000262373 0.999988 0.00493267
    length 10.1015
    axis -0.00246081 0.00062579 0.0150362 xyz
    dof rx ry rz
  end
  begin
    id 8
    name Spine1
    direction 0 0 0
    length 0
    axis -0.00349562 0.000650293 0.0196666 xyz
    dof rx ry rz
  end
  begin
    id 9
    name HEadDummy
    direction -0.000343232 0.999999 0.00123745
    length 3.43865
    axis -0.00349562 0.000650293 0.0196666 xyz
  end
  begin
    id 10
    name HEad
    direction -0.0461221 0.980933 0.188796
    length 5.12695
    axis -0.00351404 -7.04812 0.0199272 xyz
    dof rx ry rz
  end
  begin
    id 11
    name LeftShoulder1Dummy
    direction 0.998904 -0.0399089 -0.0244534
    length 3.5433
    axis -0.00349562 0.000650293 0.0196666 xyz
  end
  begin
    id 12
    name LeftShoulder1
    direction 0.99951 1.64443e-005 0.0312999
    length 4.05031
    axis -0.00349562 0.000650293 0.0196666 xyz
    dof rx ry rz
  end
  begin
    id 13
    name LeftArm
    direction 0.984791 0.0515299 0.165927
    length 12.9126
    axis -64.823 -10.7743 5.20463 xyz
    dof rx ry rz
  end
  begin
    id 14
    name LeftForeArm
    direction 0.984968 0.0534808 0.16425
    length 10.8596
    axis -30.0462 -7.70601 1.87451 xyz
    dof rx ry rz
  end
  begin
    id 15
    name LeftHand
    direction 0.975871 0.0289682 0.216418
    length 6.62295
    axis -20.1348 -6.98077 1.86072 xyz
    dof rx ry rz
  end
  begin
    id 16
    name RightShoulderDummy
    direction -0.998877 -0.0405946 -0.0244307
    length 3.5433
    axis -0.00349562 0.000650293 0.0196666 xyz
  end
  begin
    id 17
    name RightShoulder
    direction -0.998933 -0.0249743 -0.0388558
    length 4.05031
    axis -0.0205316 -4.02113 1.41395 xyz
    dof rx ry rz
  end
  begin
    id 18
    name RightArm
    direction -0.997559 0.068664 0.0127103
    length 12.9638
    axis -67.3882 1.84188 -6.15987 xyz
    dof rx ry rz
  end
  begin
    id 19
    name RightForeArm
    direction -0.991508 0.0912848 0.0926241
    length 10.8312
    axis -22.1975 3.41087 -4.28711 xyz
    dof rx ry rz
  end
  begin
    id 20
    name RightHand
    direction -0.989262 0.0600788 0.133232
    length 6.57864
    axis -12.2911 2.17515 -4.39675 xyz
    dof rx ry rz
  end
  begin
    id 21
    name LeftUpLegDummy
    direction 0.718183 -0.695806 0.00816078
    length 4.904
    axis 0 0 0 xyz
  end
  begin
    id 22
    name LeftUpLeg
    direction 0.0831398 -0.99469 0.0606531
    length 17.4976
    axis -1.71016 2.29552 4.63832 xyz
    dof rx ry rz
  end
  begin
    id 23
    name LeftLeg
    direction 0.0498442 -0.991778 -0.117862
    length 16.5821
    axis 5.13757 15.5727 5.13348 xyz
    dof rx ry rz
  end
  begin
    id 24
    name LeftFoot
    direction 0.269026 -0.433896 0.85986
    length 3.77069
    axis -0.576502 15.6961 4.10267 xyz
    dof rx ry rz
  end
  begin
    id 25
    name LeftToes
    direction 0.277311 0.0251143 0.960452
    length 3.85048
    axis -0.576502 15.6961 4.10267 xyz
    dof rx ry rz
  end
:hierarchy
  begin
    root RightUpLegDummy SpineDummy LeftUpLegDummy
    RightUpLegDummy RightUpLeg
    RightUpLeg RightLeg
    RightLeg RightFoot
    RightFoot RightToes
    SpineDummy Spine
    Spine Spine1
    Spine1 HEadDummy LeftShoulder1Dummy RightShoulderDummy
    HEadDummy HEad
    LeftShoulder1Dummy LeftShoulder1
    LeftShoulder1 LeftArm
    LeftArm LeftForeArm
    LeftForeArm LeftHand
    RightShoulderDummy RightShoulder
    RightShoulder RightArm
    RightArm RightForeArm
    RightForeArm RightHand
    LeftUpLegDummy LeftUpLeg
    LeftUpLeg LeftLeg
    LeftLeg LeftFoot
    LeftFoot LeftToes
  end

:SAMPLES-PER-SECOND 30
:FULLY-SPECIFIED
:DEGREES
77
root  7.02632 32.4284 -85.9984 31.165 -19.595 -8.04499
RightUpLeg  -70.7504 -4.70467 27.9143
RightLeg  56.554 13.5808 -4.71804
RightFoot  -16.9161 -0.303495 -11.054
RightToes  5.82077e-011 -3.18055e-015 -2.98177e-016
Spine  33.109 0.379868 11.8444
Spine1  1.9136 2.93179 -6.84042
HEad  -22.3235 4.93871 -3.43369
LeftShoulder1  -3.88251e-019 9.70628e-020 -3.87848e-018
LeftArm  -10.7455 2.53343 -65.0457
LeftForeArm  4.99446 -12.9078 -3.82782
LeftHand  -1.29633 -5.90398 14.0012
RightShoulder  4.35378 10.2758 18.9925
RightArm  0.99149 3.0139 52.8629
RightForeArm  16.8432 13.2304 -5.59171
RightHand  -1.21085 2.80231 -16.8968
LeftUpLeg  -53.9567 14.4757 -5.78244
LeftLeg  66.8922 -7.38721 18.1934
LeftFoot  -38.6534 -2.57654 -10.8583
LeftToes  1.39127e-010 -3.60802e-011 -7.31315e-011
78
root  7.06296 31.5066 -85.9329 32.1552 -19.0584 -9.05662
RightUpLeg  -73.9746 -3.82561 29.0509
RightLeg  61.0376 13.3313 -6.06285
RightFoot  -18.8204 -0.468978 -10.8023
RightToes  5.82077e-011 -3.18055e-015 -2.98177e-016
Spine  35.6072 0.199577 11.8855
Spine1  0.657628 2.64587 -6.36752
HEad  -23.0202 5.17995 -3.09588
LeftShoulder1  -3.88251e-019 9.70628e-020 -3.87848e-018
LeftArm  -10.8605 -2.00054 -64.7866
LeftForeArm  6.43295 -10.9564 -3.52107
LeftHand  -1.51554 -6.55144 15.4222
RightShoulder  4.01731 10.2166 17.1622
RightArm  1.88337 6.68911 54.0577
RightForeArm  18.124 12.9092 -5.40887
RightHand  -1.33419 3.53895 -17.1074
LeftUpLeg  -56.7104 14.0599 -4.85167
LeftLeg  71.4855 -8.67385 19.3419
LeftFoot  -40.9094 -3.02893 -11.7388
LeftToes  1.39127e-010 -3.60802e-011 -7.31315e-011
79
root  7.11631 30.5338 -85.8627 32.7741 -18.6632 -10.7012
RightUpLeg  -76.4137 -2.95551 30.7631
RightLeg  65.3911 13.3465 -7.28375
RightFoot  -20.6355 -0.623734 -10.6329
RightToes  5.82077e-011 -3.18055e-015 -2.98177e-016
Spine  39.1232 -0.0840049 12.3423
Spine1  -1.4995 2.64877 -6.52716
HEad  -23.5917 5.69963 -2.59165
LeftShoulder1  -3.88251e-019 9.70628e-020 -3.87848e-018
LeftArm  -10.7065 -6.23043 -64.2499
LeftForeArm  7.33402 -9.45855 -3.13809
LeftHand  -1.64718 -6.59981 16.6551
RightShoulder  3.68647 9.96482 15.6113
RightArm  2.75022 10.2946 55.2527
RightForeArm  20.6085 12.223 -5.17632
RightHand  -1.43188 4.3409 -16.8825
LeftUpLeg  -59.1836 14.3536 -3.19568
LeftLeg  76.9192 -10.5049 19.7322
LeftFoot  -42.6747 -3.52779 -12.8635
LeftToes  1.39127e-010 -3.60802e-011 -7.31315e-011
80
root  7.15714 29.43 -85.766 34.0778 -18.9818 -11.9802
RightUpLeg  -79.8223 -1.25677 31.931
RightLeg  70.0909 13.5357 -8.705
RightFoot  -22.3351 -0.773218 -10.5931
RightToes  5.82077e-011 -3.18055e-015 -2.98177e-016
Spine  41.1872 0.153691 11.5759
Spine1  -2.68161 2.67498 -6.38289
HEad  -24.5143 6.80509 -2.17354
LeftShoulder1  -3.88251e-019 9.70628e-020 -3.87848e-018
LeftArm  -10.4592 -10.4321 -63.1735
LeftForeArm  6.2205 -8.31237 -2.46473
LeftHand  -1.67736 -6.17737 17.5671
RightShoulder  3.18138 9.568 13.1805
RightArm  3.01607 13.8893 57.7564
RightForeArm  24.0269 11.0407 -5.53792
RightHand  -1.42854 5.07787 -15.699
LeftUpLeg  -62.5728 15.1423 -2.41378
LeftLeg  83.1731 -12.6457 19.0935
LeftFoot  -43.9129 -4.11872 -14.431
LeftToes  1.39127e-010 -3.60802e-011 -7.31315e-011
81
root  7.18625 28.2861 -85.6309 34.9911 -19.3321 -13.408
RightUpLeg  -82.7838 0.338843 33.1791
RightLeg  74.8836 13.9466 -10.2103
RightFoot  -23.967 -0.905211 -10.4449
RightToes  5.82077e-011 -3.18055e-015 -2.98177e-016
Spine  43.0664 0.562211 10.3805
Spine1  -3.71206 2.65631 -5.50243
HEad  -25.2171 8.12008 -1.92139
LeftShoulder1  -3.88251e-019 9.70628e-020 -3.87848e-018
LeftArm  -10.4375 -14.0312 -61.5426
LeftForeArm  3.61323 -7.21357 -1.87992
LeftHand  -1.70836 -5.52054 18.9636
RightShoulder  2.78589 9.53605 10.8217
RightArm  3.26003 17.3079 60.4739
RightForeArm  27.5836 9.559 -6.15237
RightHand  -1.41496 5.74355 -14.6482
LeftUpLeg  -65.3029 16.1422 -1.36092
LeftLeg  89.8243 -14.661 17.7529
LeftFoot  -44.913 -4.74335 -16.1048
LeftToes  1.39127e-010 -3.60802e-011 -7.31315e-011
82
root  7.2193 27.1196 -85.4434 35.738 -19.696 -15.089
RightUpLeg  -85.341 1.87167 34.6024
RightLeg  79.6469 14.6139 -11.5129
RightFoot  -25.535 -0.988837 -9.93577
RightToes  5.82077e-011 -3.18055e-015 -2.98177e-016
Spine  45.1682 1.11686 9.31955
Spine1  -5.13271 2.90433 -4.6472
HEad  -25.7479 8.93915 -1.77579
LeftShoulder1  -3.88251e-019 9.70628e-020 -3.87848e-018
LeftArm  -10.2927 -17.2259 -59.7473
LeftForeArm  0.513166 -6.41169 -1.43388
LeftHand  -1.74685 -4.68253 20.9972
RightShoulder  2.44995 9.46967 8.83514
RightArm  3.8161 20.424 62.5355
RightForeArm  29.0483 8.54858 -6.63221
RightHand  -1.42895 5.93655 -14.5514
LeftUpLeg  -67.3583 17.2792 -0.0458653
LeftLeg  96.2859 -16.3469 16.5465
LeftFoot  -46.0584 -5.35288 -17.5306
LeftToes  1.39127e-010 -3.60802e-011 -7.31315e-011
83
root  7.27865 25.9403 -85.1938 36.7816 -20.0374 -16.8107
RightUpLeg  -87.9864 3.49761 35.9531
RightLeg  84.2323 15.4574 -12.6427
RightFoot  -27.1033 -1.0291 -9.18181
RightToes  5.82077e-011 -3.18055e-015 -2.98177e-016
Spine  46.6429 1.63277 8.75005
Spine1  -6.11104 3.40618 -4.48151
HEad  -26.4104 9.29046 -1.77307
LeftShoulder1  -3.88251e-019 9.70628e-020 -3.87848e-018
LeftArm  -9.89307 -20.6318 -57.9717
LeftForeArm  -2.0473 -5.88713 -0.981079
LeftHand  -1.71298 -3.9224 22.2863
RightShoulder  2.09763 9.14563 7.00552
RightArm  4.38892 23.3833 64.0192
RightForeArm  28.3112 8.02623 -7.06891
RightHand  -1.39837 5.78251 -14.4323
LeftUpLeg  -69.2377 18.3067 1.07658
LeftLeg  102.275 -17.797 15.6982
LeftFoot  -47.387 -6.03731 -18.9768
LeftToes  1.39127e-010 -3.60802e-011 -7.31315e-011
84
root  7.37492 24.7632 -84.8869 38.1899 -20.2657 -18.4606
RightUpLeg  -90.8893 5.25554 37.0403
RightLeg  88.5708 16.428 -13.8263
RightFoot  -28.6032 -1.03827 -8.3871
RightToes  5.82077e-011 -3.18055e-015 -2.98177e-016
Spine  47.0415 1.90344 8.56532
Spine1  -6.35905 3.81499 -4.82273
HEad  -27.1741 9.81609 -1.8122
LeftShoulder1  -3.88251e-019 9.70628e-020 -3.87848e-018
LeftArm  -9.60296 -24.0285 -55.9969
LeftForeArm  -3.02769 -5.28687 -0.384969
LeftHand  -1.66947 -3.68238 22.3305
RightShoulder  1.86105 9.1116 5.54584
RightArm  4.7705 26.2079 65.255
RightForeArm  27.8835 7.50299 -7.65216
RightHand  -1.29702 5.93806 -13.2333
LeftUpLeg  -71.1253 19.0719 1.83818
LeftLeg  107.944 -19.0798 14.8982
LeftFoot  -48.7459 -6.88221 -20.7667
LeftToes  1.39127e-010 -3.60802e-011 -7.31315e-011
